<svg width="34" height="35" viewBox="0 0 34 35" fill="none" xmlns="http://www.w3.org/2000/svg">
<g id="noun_Pie Chart_4196192 1" clip-path="url(#clip0_5809_490)">
<g id="Group 2">
<g id="Group">
<path id="Vector" d="M9.82514 2.69283C9.78775 2.62068 9.76494 2.54188 9.75801 2.46092C9.75109 2.37995 9.76018 2.29842 9.78477 2.22097C9.80936 2.14353 9.84897 2.07168 9.90134 2.00955C9.95371 1.94741 10.0178 1.8962 10.09 1.85885C12.3042 0.732861 14.7639 0.175628 17.2472 0.237385C19.7305 0.299142 22.1595 0.977947 24.315 2.2126C24.3857 2.25326 24.4477 2.30752 24.4973 2.37224C24.5469 2.43697 24.5833 2.51088 24.6042 2.58971C24.6251 2.66854 24.6302 2.75074 24.6192 2.83155C24.6082 2.91237 24.5813 2.99021 24.5401 3.06058L17.419 15.2819C17.3647 15.3755 17.2866 15.4531 17.1928 15.507C17.099 15.5609 16.9926 15.5892 16.8844 15.5891H16.8687C16.7578 15.5861 16.6498 15.5535 16.5558 15.4947C16.4618 15.4359 16.3852 15.353 16.3341 15.2546L9.82514 2.69283ZM16.5024 18.8484V18.8472L9.99323 6.28538C9.91763 6.13995 9.78756 6.03033 9.63143 5.98046C9.4753 5.93059 9.30577 5.94452 9.15987 6.0192C7.4251 6.9087 5.88307 8.13205 4.6223 9.61902C3.36152 11.106 2.40682 12.8273 1.81298 14.6842C1.21914 16.5411 0.997864 18.497 1.16185 20.4396C1.32583 22.3822 1.87184 24.2733 2.76855 26.0044C3.66525 27.7354 4.89499 29.2723 6.38719 30.5269C7.87939 31.7815 9.60467 32.7291 11.464 33.3152C13.3233 33.9013 15.2801 34.1144 17.222 33.9424C19.1639 33.7703 21.0528 33.2165 22.7801 32.3126C22.9252 32.2366 23.0343 32.1063 23.0837 31.9502C23.1331 31.794 23.1188 31.6247 23.0438 31.4791L16.5024 18.8484ZM24.1324 30.7219L24.182 30.821C24.2568 30.9671 24.3857 31.0782 24.5412 31.1307C24.605 31.1518 24.6723 31.1602 24.7394 31.1554C24.8374 31.1527 24.934 31.1317 25.0243 31.0935C25.2497 30.9818 25.4689 30.8577 25.6807 30.7219C26.3107 30.3564 26.9112 29.9423 27.4768 29.4833H23.4883L24.1324 30.7219ZM22.8443 28.2446H28.8269C29.2115 27.8581 29.5676 27.4442 29.8921 27.006H22.2002L22.8443 28.2446ZM21.5685 25.7673H30.7716C31.0253 25.3697 31.2528 24.9559 31.4528 24.5287H20.9244L21.5685 25.7673ZM20.2803 23.2901H31.9978C32.1622 22.8857 32.3028 22.4721 32.4189 22.0514H19.6362L20.2803 23.2901ZM18.9921 20.8128H32.7286C32.8029 20.404 32.8649 19.9953 32.902 19.5741H18.3604L18.9921 20.8128ZM25.6312 5.15636C25.5617 5.11313 25.4837 5.08524 25.4025 5.07456C25.3214 5.06388 25.2389 5.07065 25.1605 5.09443C25.0803 5.11275 25.0047 5.14753 24.9386 5.19657C24.8725 5.24561 24.8173 5.30784 24.7765 5.37931L24.4421 5.94909H26.8327C26.4466 5.66355 26.0456 5.39893 25.6312 5.15636ZM28.3314 7.18773H23.7237L23.0053 8.42637H29.5081C29.1417 7.98976 28.7487 7.5761 28.3314 7.18773ZM30.4371 9.66501H22.2745L21.5561 10.9037H31.1927C30.9692 10.4741 30.7168 10.0603 30.4371 9.66501ZM31.7872 12.1423H20.8377L20.1192 13.3809H32.2703C32.133 12.9592 31.9717 12.5456 31.7872 12.1423ZM32.6171 14.6196H19.3884L18.67 15.8582H32.8401C32.7909 15.4412 32.7165 15.0276 32.6171 14.6196ZM32.9639 17.0969H17.9516L17.6543 17.6047C17.6007 17.6941 17.5713 17.796 17.5691 17.9003C17.5669 18.0046 17.5921 18.1077 17.642 18.1992L17.7163 18.3355H32.9887C33.0011 18.2116 33.0011 18.0754 33.0011 17.9515C33.0011 17.6666 32.9887 17.3817 32.9639 17.0969Z" fill="white"/>
</g>
<path id="Ellipse 1" d="M9.54053 5.40696C9.31349 4.97673 8.77911 4.80993 8.36227 5.06072C5.0624 7.04608 2.59701 10.182 1.4536 13.8808C0.223229 17.861 0.624355 22.1669 2.56873 25.8512C4.51311 29.5356 7.84147 32.2967 11.8216 33.5271C15.5204 34.6705 19.5006 34.4049 23.0018 32.801C23.4441 32.5985 23.608 32.0632 23.3809 31.6329L16.4607 18.52L9.54053 5.40696Z" fill="white"/>
</g>
</g>
<defs>
<clipPath id="clip0_5809_490">
<rect width="32.745" height="34.8351" fill="white" transform="translate(0.47406 -0.319336)"/>
</clipPath>
</defs>
</svg>
